<svg xmlns="http://www.w3.org/2000/svg" viewBox="0 0 1440 320"><path fill="#464646" fill-opacity="1" d="M0,32L30,53.3C60,75,120,117,180,160C240,203,300,245,360,256C420,267,480,245,540,224C600,203,660,181,720,160C780,139,840,117,900,106.7C960,96,1020,96,1080,128C1140,160,1200,224,1260,218.7C1320,213,1380,139,1410,101.3L1440,64L1440,320L1410,320C1380,320,1320,320,1260,320C1200,320,1140,320,1080,320C1020,320,960,320,900,320C840,320,780,320,720,320C660,320,600,320,540,320C480,320,420,320,360,320C300,320,240,320,180,320C120,320,60,320,30,320L0,320Z"></path></svg>